<mxfile host="app.diagrams.net" modified="2021-11-05T11:49:08.853Z" agent="5.0 (Macintosh; Intel Mac OS X 10_15_7) AppleWebKit/605.1.15 (KHTML, like Gecko) Version/15.1 Safari/605.1.15" etag="_zK4be_-ojttWCIIiTpj" version="15.6.8" type="github">
  <diagram id="MMLj7sYnD8k3ICjtFFn5" name="Page-1">
    <mxGraphModel dx="1234" dy="763" grid="1" gridSize="10" guides="1" tooltips="1" connect="1" arrows="1" fold="1" page="1" pageScale="1" pageWidth="827" pageHeight="1169" math="0" shadow="0">
      <root>
        <mxCell id="0" />
        <mxCell id="1" parent="0" />
        <mxCell id="1WeBkYuhpyHseouhtALH-17" value="" style="rounded=1;whiteSpace=wrap;html=1;fillColor=#dae8fc;dashed=1;dashPattern=1 1;strokeColor=#6c8ebf;" vertex="1" parent="1">
          <mxGeometry x="80" y="30" width="680" height="300" as="geometry" />
        </mxCell>
        <mxCell id="1WeBkYuhpyHseouhtALH-8" style="edgeStyle=orthogonalEdgeStyle;rounded=0;orthogonalLoop=1;jettySize=auto;html=1;exitX=0.5;exitY=1;exitDx=0;exitDy=0;entryX=0.5;entryY=0;entryDx=0;entryDy=0;" edge="1" parent="1" source="1WeBkYuhpyHseouhtALH-6" target="1WeBkYuhpyHseouhtALH-7">
          <mxGeometry relative="1" as="geometry" />
        </mxCell>
        <mxCell id="1WeBkYuhpyHseouhtALH-6" value="&lt;p style=&quot;margin: 0px ; font-stretch: normal ; line-height: normal ; font-family: &amp;#34;menlo&amp;#34; ; color: rgb(28 , 70 , 74) ; background-color: rgb(255 , 255 , 255)&quot;&gt;SessionStore&lt;/p&gt;" style="rounded=1;whiteSpace=wrap;html=1;" vertex="1" parent="1">
          <mxGeometry x="319" y="70" width="190" height="90" as="geometry" />
        </mxCell>
        <mxCell id="1WeBkYuhpyHseouhtALH-14" style="edgeStyle=orthogonalEdgeStyle;rounded=0;orthogonalLoop=1;jettySize=auto;html=1;entryX=0.5;entryY=0;entryDx=0;entryDy=0;endArrow=block;endFill=0;" edge="1" parent="1" source="1WeBkYuhpyHseouhtALH-7" target="1WeBkYuhpyHseouhtALH-11">
          <mxGeometry relative="1" as="geometry" />
        </mxCell>
        <mxCell id="1WeBkYuhpyHseouhtALH-15" style="edgeStyle=orthogonalEdgeStyle;rounded=0;orthogonalLoop=1;jettySize=auto;html=1;endArrow=block;endFill=0;" edge="1" parent="1" source="1WeBkYuhpyHseouhtALH-7" target="1WeBkYuhpyHseouhtALH-12">
          <mxGeometry relative="1" as="geometry" />
        </mxCell>
        <mxCell id="1WeBkYuhpyHseouhtALH-16" style="edgeStyle=orthogonalEdgeStyle;rounded=0;orthogonalLoop=1;jettySize=auto;html=1;entryX=0.5;entryY=0;entryDx=0;entryDy=0;endArrow=block;endFill=0;" edge="1" parent="1" source="1WeBkYuhpyHseouhtALH-7" target="1WeBkYuhpyHseouhtALH-13">
          <mxGeometry relative="1" as="geometry" />
        </mxCell>
        <mxCell id="1WeBkYuhpyHseouhtALH-7" value="&lt;p style=&quot;margin: 0px ; font-stretch: normal ; line-height: normal ; font-family: &amp;#34;menlo&amp;#34; ; color: rgb(28 , 70 , 74) ; background-color: rgb(255 , 255 , 255)&quot;&gt;AuthProvider&lt;/p&gt;" style="rounded=1;whiteSpace=wrap;html=1;dashed=1;" vertex="1" parent="1">
          <mxGeometry x="313" y="200" width="201" height="110" as="geometry" />
        </mxCell>
        <mxCell id="1WeBkYuhpyHseouhtALH-9" value="&lt;p style=&quot;margin: 0px ; font-stretch: normal ; line-height: normal ; font-family: &amp;#34;menlo&amp;#34; ; color: rgb(28 , 70 , 74) ; background-color: rgb(255 , 255 , 255)&quot;&gt;signIn&lt;/p&gt;" style="rounded=1;whiteSpace=wrap;html=1;" vertex="1" parent="1">
          <mxGeometry x="319" y="270" width="91" height="30" as="geometry" />
        </mxCell>
        <mxCell id="1WeBkYuhpyHseouhtALH-10" value="&lt;p style=&quot;margin: 0px ; font-stretch: normal ; line-height: normal ; font-family: &amp;#34;menlo&amp;#34; ; color: rgb(28 , 70 , 74) ; background-color: rgb(255 , 255 , 255)&quot;&gt;signOut&lt;/p&gt;" style="rounded=1;whiteSpace=wrap;html=1;" vertex="1" parent="1">
          <mxGeometry x="417" y="270" width="91" height="30" as="geometry" />
        </mxCell>
        <mxCell id="1WeBkYuhpyHseouhtALH-11" value="&lt;p style=&quot;margin: 0px ; font-stretch: normal ; line-height: normal ; font-family: &amp;#34;menlo&amp;#34; ; color: rgb(28 , 70 , 74) ; background-color: rgb(255 , 255 , 255)&quot;&gt;FirebaseAuth&lt;/p&gt;" style="rounded=1;whiteSpace=wrap;html=1;" vertex="1" parent="1">
          <mxGeometry x="70" y="390" width="190" height="90" as="geometry" />
        </mxCell>
        <mxCell id="1WeBkYuhpyHseouhtALH-12" value="&lt;p style=&quot;margin: 0px ; font-stretch: normal ; line-height: normal ; font-family: &amp;#34;menlo&amp;#34; ; color: rgb(28 , 70 , 74) ; background-color: rgb(255 , 255 , 255)&quot;&gt;AppleAuth&lt;/p&gt;" style="rounded=1;whiteSpace=wrap;html=1;" vertex="1" parent="1">
          <mxGeometry x="319" y="390" width="190" height="90" as="geometry" />
        </mxCell>
        <mxCell id="1WeBkYuhpyHseouhtALH-13" value="&lt;p style=&quot;margin: 0px ; font-stretch: normal ; line-height: normal ; font-family: &amp;#34;menlo&amp;#34; ; color: rgb(28 , 70 , 74) ; background-color: rgb(255 , 255 , 255)&quot;&gt;ProprietaryAuth&lt;/p&gt;" style="rounded=1;whiteSpace=wrap;html=1;" vertex="1" parent="1">
          <mxGeometry x="570" y="390" width="190" height="90" as="geometry" />
        </mxCell>
        <mxCell id="1WeBkYuhpyHseouhtALH-18" value="Business Logic" style="text;html=1;strokeColor=none;fillColor=none;align=center;verticalAlign=middle;whiteSpace=wrap;rounded=0;dashed=1;dashPattern=1 1;fontSize=18;" vertex="1" parent="1">
          <mxGeometry x="120" y="60" width="60" height="30" as="geometry" />
        </mxCell>
      </root>
    </mxGraphModel>
  </diagram>
</mxfile>
